<svg width="16" height="16" viewBox="0 0 16 16" fill="none" xmlns="http://www.w3.org/2000/svg">
<g id="CaretDoubleLeft">
<path id="Vector" d="M13.0312 12.4693C13.1721 12.6102 13.2513 12.8013 13.2513 13.0006C13.2513 13.1999 13.1721 13.391 13.0312 13.5318C12.8903 13.6727 12.6992 13.7519 12.5 13.7519C12.3007 13.7519 12.1096 13.6727 11.9687 13.5318L6.96872 8.53185C6.8988 8.46217 6.84332 8.37937 6.80546 8.28821C6.76761 8.19705 6.74813 8.09931 6.74813 8.0006C6.74813 7.90189 6.76761 7.80415 6.80546 7.71298C6.84332 7.62182 6.8988 7.53903 6.96872 7.46935L11.9687 2.46935C12.1096 2.32845 12.3007 2.2493 12.5 2.2493C12.6992 2.2493 12.8903 2.32845 13.0312 2.46935C13.1721 2.61024 13.2513 2.80134 13.2513 3.0006C13.2513 3.19986 13.1721 3.39095 13.0312 3.53185L8.56309 7.99997L13.0312 12.4693ZM3.56309 7.99997L8.03309 3.5306C8.17399 3.3897 8.25314 3.19861 8.25314 2.99935C8.25314 2.80009 8.17399 2.60899 8.03309 2.4681C7.8922 2.3272 7.7011 2.24805 7.50184 2.24805C7.30258 2.24805 7.11149 2.3272 6.97059 2.4681L1.97059 7.4681C1.90067 7.53778 1.84519 7.62057 1.80734 7.71173C1.76949 7.8029 1.75 7.90064 1.75 7.99935C1.75 8.09806 1.76949 8.1958 1.80734 8.28696C1.84519 8.37813 1.90067 8.46092 1.97059 8.5306L6.97059 13.5306C7.04036 13.6004 7.12318 13.6557 7.21433 13.6935C7.30548 13.7312 7.40318 13.7506 7.50184 13.7506C7.6005 13.7506 7.6982 13.7312 7.78935 13.6935C7.8805 13.6557 7.96333 13.6004 8.03309 13.5306C8.10286 13.4608 8.1582 13.378 8.19595 13.2869C8.23371 13.1957 8.25314 13.098 8.25314 12.9993C8.25314 12.9007 8.23371 12.803 8.19595 12.7118C8.1582 12.6207 8.10286 12.5379 8.03309 12.4681L3.56309 7.99997Z" fill="#B1B1B1"/>
</g>
</svg>
