<svg width="32" height="32" viewBox="0 0 32 32" fill="none" xmlns="http://www.w3.org/2000/svg">
    <path
        d="M29.7408 13.4009C29.7129 13.2601 29.6551 13.1269 29.5712 13.0104C29.4873 12.894 29.3793 12.7969 29.2545 12.7259L25.5258 10.6009L25.5108 6.3984C25.5103 6.25367 25.4785 6.11076 25.4174 5.97954C25.3563 5.84833 25.2675 5.73193 25.157 5.6384C23.8044 4.49427 22.2468 3.61748 20.567 3.05465C20.4348 3.00988 20.2946 2.99331 20.1555 3.00601C20.0164 3.01871 19.8815 3.0604 19.7595 3.1284L15.9983 5.2309L12.2333 3.12465C12.1112 3.05627 11.9762 3.01426 11.8369 3.00134C11.6976 2.98842 11.5571 3.00488 11.4245 3.04965C9.74575 3.6161 8.18984 4.49628 6.83953 5.6434C6.72924 5.7368 6.64051 5.85299 6.57944 5.98398C6.51837 6.11496 6.48642 6.25763 6.48579 6.40215L6.46703 10.6084L2.73828 12.7334C2.61354 12.8044 2.50554 12.9015 2.42164 13.0179C2.33773 13.1344 2.27989 13.2676 2.25203 13.4084C1.91078 15.1233 1.91078 16.8885 2.25203 18.6034C2.27989 18.7442 2.33773 18.8774 2.42164 18.9939C2.50554 19.1103 2.61354 19.2074 2.73828 19.2784L6.46703 21.4034L6.48203 25.6072C6.48249 25.7519 6.51435 25.8948 6.57543 26.026C6.6365 26.1572 6.72533 26.2736 6.83578 26.3672C8.18837 27.5113 9.74598 28.3881 11.4258 28.9509C11.5581 28.9957 11.6983 29.0122 11.8373 28.9995C11.9764 28.9868 12.1113 28.9452 12.2333 28.8772L15.9983 26.7684L19.7633 28.8747C19.9123 28.9577 20.0802 29.0007 20.2508 28.9997C20.36 28.9996 20.4685 28.9819 20.572 28.9472C22.2504 28.381 23.8062 27.5017 25.157 26.3559C25.2673 26.2625 25.3561 26.1463 25.4171 26.0153C25.4782 25.8843 25.5102 25.7417 25.5108 25.5972L25.5295 21.3909L29.2583 19.2659C29.383 19.1949 29.491 19.0978 29.5749 18.9814C29.6588 18.8649 29.7167 18.7317 29.7445 18.5909C30.0839 16.8774 30.0826 15.1139 29.7408 13.4009ZM15.9983 20.9997C15.0094 20.9997 14.0427 20.7064 13.2204 20.157C12.3982 19.6076 11.7573 18.8267 11.3789 17.9131C11.0004 16.9994 10.9014 15.9941 11.0944 15.0242C11.2873 14.0543 11.7635 13.1634 12.4628 12.4641C13.162 11.7649 14.0529 11.2887 15.0228 11.0957C15.9927 10.9028 16.9981 11.0018 17.9117 11.3803C18.8253 11.7587 19.6062 12.3996 20.1556 13.2218C20.705 14.044 20.9983 15.0107 20.9983 15.9997C20.9983 17.3257 20.4715 18.5975 19.5338 19.5352C18.5961 20.4729 17.3244 20.9997 15.9983 20.9997Z"
        fill="#99A2FF" />
</svg>