<svg width="32" height="32" viewBox="0 0 33 32" fill="none" xmlns="http://www.w3.org/2000/svg">
    <path
        d="M16.332 3C13.7609 3 11.2475 3.76244 9.10962 5.1909C6.97178 6.61935 5.30554 8.64968 4.3216 11.0251C3.33766 13.4006 3.08022 16.0144 3.58183 18.5362C4.08344 21.0579 5.32157 23.3743 7.13965 25.1924C8.95773 27.0105 11.2741 28.2486 13.7959 28.7502C16.3176 29.2518 18.9315 28.9944 21.3069 28.0104C23.6824 27.0265 25.7127 25.3603 27.1411 23.2224C28.5696 21.0846 29.332 18.5712 29.332 16C29.3284 12.5533 27.9576 9.24882 25.5204 6.81163C23.0832 4.37445 19.7787 3.00364 16.332 3ZM15.832 9C16.1287 9 16.4187 9.08797 16.6654 9.2528C16.9121 9.41762 17.1043 9.65189 17.2179 9.92597C17.3314 10.2001 17.3611 10.5017 17.3032 10.7926C17.2453 11.0836 17.1025 11.3509 16.8927 11.5607C16.6829 11.7704 16.4156 11.9133 16.1247 11.9712C15.8337 12.0291 15.5321 11.9994 15.258 11.8858C14.9839 11.7723 14.7497 11.58 14.5848 11.3334C14.42 11.0867 14.332 10.7967 14.332 10.5C14.332 10.1022 14.4901 9.72064 14.7714 9.43934C15.0527 9.15804 15.4342 9 15.832 9ZM17.332 23C16.8016 23 16.2929 22.7893 15.9178 22.4142C15.5428 22.0391 15.332 21.5304 15.332 21V16C15.0668 16 14.8125 15.8946 14.6249 15.7071C14.4374 15.5196 14.332 15.2652 14.332 15C14.332 14.7348 14.4374 14.4804 14.6249 14.2929C14.8125 14.1054 15.0668 14 15.332 14C15.8625 14 16.3712 14.2107 16.7463 14.5858C17.1213 14.9609 17.332 15.4696 17.332 16V21C17.5973 21 17.8516 21.1054 18.0391 21.2929C18.2267 21.4804 18.332 21.7348 18.332 22C18.332 22.2652 18.2267 22.5196 18.0391 22.7071C17.8516 22.8946 17.5973 23 17.332 23Z"
        fill="#99A2FF" />
</svg>