<svg width="32" height="32" viewBox="0 0 32 32" fill="none" xmlns="http://www.w3.org/2000/svg">
    <path
        d="M15.9983 9.99965C14.8116 9.99965 13.6516 10.3515 12.6649 11.0108C11.6782 11.6701 10.9091 12.6072 10.455 13.7036C10.0009 14.7999 9.88206 16.0063 10.1136 17.1702C10.3451 18.3341 10.9165 19.4032 11.7556 20.2423C12.5948 21.0814 13.6639 21.6529 14.8277 21.8844C15.9916 22.1159 17.198 21.9971 18.2944 21.5429C19.3907 21.0888 20.3278 20.3198 20.9871 19.3331C21.6464 18.3464 21.9983 17.1863 21.9983 15.9997C21.9966 14.4089 21.364 12.8837 20.2391 11.7588C19.1142 10.634 17.5891 10.0013 15.9983 9.99965ZM15.9983 19.9997C15.2072 19.9997 14.4338 19.7651 13.776 19.3255C13.1182 18.886 12.6055 18.2613 12.3028 17.5304C12 16.7995 11.9208 15.9952 12.0751 15.2193C12.2295 14.4434 12.6104 13.7306 13.1699 13.1712C13.7293 12.6118 14.442 12.2309 15.2179 12.0765C15.9938 11.9222 16.7981 12.0014 17.529 12.3041C18.2599 12.6069 18.8846 13.1196 19.3242 13.7774C19.7637 14.4352 19.9983 15.2085 19.9983 15.9997C19.9983 17.0605 19.5769 18.0779 18.8267 18.8281C18.0766 19.5782 17.0592 19.9997 15.9983 19.9997ZM29.7408 13.4009C29.7129 13.2601 29.6551 13.1269 29.5712 13.0104C29.4873 12.894 29.3793 12.7969 29.2545 12.7259L25.5258 10.6009L25.5108 6.3984C25.5103 6.25367 25.4785 6.11076 25.4174 5.97954C25.3563 5.84833 25.2675 5.73193 25.157 5.6384C23.8044 4.49427 22.2468 3.61748 20.567 3.05465C20.4348 3.00988 20.2946 2.99331 20.1555 3.00601C20.0164 3.01871 19.8815 3.0604 19.7595 3.1284L15.9983 5.2309L12.2333 3.12465C12.1112 3.05627 11.9762 3.01426 11.8369 3.00134C11.6976 2.98842 11.5571 3.00488 11.4245 3.04965C9.74597 3.6166 8.19015 4.49673 6.83953 5.6434C6.72924 5.7368 6.64051 5.85299 6.57944 5.98398C6.51837 6.11496 6.48642 6.25763 6.48579 6.40215L6.46703 10.6084L2.73828 12.7334C2.61354 12.8044 2.50554 12.9015 2.42164 13.0179C2.33773 13.1344 2.27989 13.2676 2.25203 13.4084C1.91078 15.1233 1.91078 16.8885 2.25203 18.6034C2.27989 18.7442 2.33773 18.8774 2.42164 18.9939C2.50554 19.1103 2.61354 19.2074 2.73828 19.2784L6.46703 21.4034L6.48203 25.6059C6.48249 25.7506 6.51435 25.8935 6.57543 26.0248C6.6365 26.156 6.72533 26.2724 6.83578 26.3659C8.18837 27.51 9.74598 28.3868 11.4258 28.9497C11.5581 28.9944 11.6983 29.011 11.8373 28.9983C11.9764 28.9856 12.1113 28.9439 12.2333 28.8759L15.9983 26.7684L19.7633 28.8747C19.9123 28.9577 20.0802 29.0007 20.2508 28.9997C20.36 28.9996 20.4685 28.9819 20.572 28.9472C22.2504 28.381 23.8062 27.5017 25.157 26.3559C25.2673 26.2625 25.3561 26.1463 25.4171 26.0153C25.4782 25.8843 25.5102 25.7417 25.5108 25.5972L25.5295 21.3909L29.2583 19.2659C29.383 19.1949 29.491 19.0978 29.5749 18.9814C29.6588 18.8649 29.7167 18.7317 29.7445 18.5909C30.0839 16.8774 30.0826 15.1139 29.7408 13.4009ZM27.8658 17.7647L24.2945 19.7959C24.1381 19.8849 24.0085 20.0144 23.9195 20.1709C23.847 20.2959 23.7708 20.4284 23.6933 20.5534C23.5941 20.711 23.5412 20.8934 23.5408 21.0797L23.522 25.1109C22.5621 25.8647 21.4927 26.4675 20.3508 26.8984L16.7483 24.8909C16.5987 24.8081 16.4305 24.7651 16.2595 24.7659H16.2358C16.0845 24.7659 15.932 24.7659 15.7808 24.7659C15.6019 24.7614 15.425 24.8046 15.2683 24.8909L11.6633 26.9034C10.5189 26.4758 9.44656 25.876 8.48328 25.1247L8.46953 21.0997C8.46892 20.913 8.41609 20.7303 8.31704 20.5722C8.23954 20.4472 8.16328 20.3222 8.09203 20.1897C8.00369 20.0308 7.87414 19.8986 7.71703 19.8072L4.14204 17.7709C3.95703 16.6007 3.95703 15.4086 4.14204 14.2384L7.70703 12.2034C7.86351 12.1144 7.99306 11.9849 8.08203 11.8284C8.15453 11.7034 8.23079 11.5709 8.30829 11.4459C8.40749 11.2883 8.46034 11.1059 8.46078 10.9197L8.47953 6.8884C9.43945 6.13458 10.5089 5.5318 11.6508 5.1009L15.2483 7.1084C15.4049 7.19519 15.5818 7.23836 15.7608 7.2334C15.912 7.2334 16.0645 7.2334 16.2158 7.2334C16.3947 7.23787 16.5715 7.19473 16.7283 7.1084L20.3333 5.0959C21.4776 5.52349 22.55 6.12332 23.5133 6.87465L23.527 10.8997C23.5277 11.0863 23.5805 11.269 23.6795 11.4272C23.757 11.5522 23.8333 11.6772 23.9045 11.8097C23.9929 11.9685 24.1224 12.1007 24.2795 12.1922L27.8545 14.2284C28.042 15.3995 28.0441 16.5929 27.8608 17.7647H27.8658Z"
        fill="#B1B1B1" />
</svg>